<mxfile host="app.diagrams.net" modified="2022-02-24T08:03:49.985Z" agent="5.0 (Linux; Android 10; TECNO KE5) AppleWebKit/537.36 (KHTML, like Gecko) Chrome/80.0.3987.99 Mobile Safari/537.36" etag="RA1JCxAhUHcU_xICE1An" version="16.6.3" type="github">
  <diagram id="p14NGAtfgUeNsUwqX7SL" name="Page-1">
    <mxGraphModel dx="466" dy="897" grid="0" gridSize="10" guides="1" tooltips="1" connect="1" arrows="1" fold="1" page="0" pageScale="1" pageWidth="850" pageHeight="1100" math="0" shadow="0">
      <root>
        <mxCell id="0" />
        <mxCell id="1" parent="0" />
        <mxCell id="03TmYEqxH1GG4p34U5iH-5" value="" style="rounded=0;whiteSpace=wrap;html=1;sketch=0;hachureGap=4;fontColor=#46495D;strokeColor=#788AA3;strokeWidth=3;fillColor=#B2C9AB;" vertex="1" parent="1">
          <mxGeometry x="99" y="539" width="270" height="510" as="geometry" />
        </mxCell>
        <mxCell id="03TmYEqxH1GG4p34U5iH-6" value="unengej@gmail.com" style="text;strokeColor=none;fillColor=none;html=1;align=center;verticalAlign=middle;whiteSpace=wrap;rounded=0;sketch=0;hachureGap=4;fontColor=#46495D;" vertex="1" parent="1">
          <mxGeometry x="182" y="599" width="84" height="57" as="geometry" />
        </mxCell>
        <mxCell id="03TmYEqxH1GG4p34U5iH-3" value="" style="ellipse;whiteSpace=wrap;html=1;rounded=0;sketch=0;hachureGap=4;strokeWidth=3;" vertex="1" parent="1">
          <mxGeometry x="191" y="543" width="75" height="78" as="geometry" />
        </mxCell>
        <object label="B.Sc Microbiology" id="03TmYEqxH1GG4p34U5iH-8">
          <mxCell style="text;strokeColor=none;fillColor=none;html=1;align=center;verticalAlign=middle;whiteSpace=wrap;rounded=0;sketch=0;hachureGap=4;fontColor=#46495D;" vertex="1" parent="1">
            <mxGeometry x="101" y="636" width="108" height="37" as="geometry" />
          </mxCell>
        </object>
        <object label="Objective:&lt;br&gt;To deploy my high quality programming skills to develop sustainable products in a timely and excellent manner leading to an overall unbeatable user experience.&amp;nbsp;" id="03TmYEqxH1GG4p34U5iH-9">
          <mxCell style="text;strokeColor=none;fillColor=none;html=1;align=center;verticalAlign=middle;whiteSpace=wrap;rounded=0;sketch=0;hachureGap=4;fontColor=#46495D;" vertex="1" parent="1">
            <mxGeometry x="99" y="689" width="210" height="48" as="geometry" />
          </mxCell>
        </object>
        <mxCell id="03TmYEqxH1GG4p34U5iH-11" value="" style="rounded=0;whiteSpace=wrap;html=1;sketch=0;hachureGap=4;fontColor=#46495D;strokeColor=#788AA3;strokeWidth=3;fillColor=#B2C9AB;" vertex="1" parent="1">
          <mxGeometry x="377" y="539" width="270" height="510" as="geometry" />
        </mxCell>
        <mxCell id="03TmYEqxH1GG4p34U5iH-12" value="" style="rounded=0;whiteSpace=wrap;html=1;sketch=0;hachureGap=4;fontColor=#46495D;strokeColor=#788AA3;strokeWidth=3;fillColor=#B2C9AB;" vertex="1" parent="1">
          <mxGeometry x="655" y="539" width="270" height="510" as="geometry" />
        </mxCell>
        <mxCell id="03TmYEqxH1GG4p34U5iH-14" value="" style="rounded=0;whiteSpace=wrap;html=1;sketch=0;hachureGap=4;strokeWidth=3;" vertex="1" parent="1">
          <mxGeometry x="137" y="208" width="54" height="25" as="geometry" />
        </mxCell>
        <mxCell id="03TmYEqxH1GG4p34U5iH-15" value="Hobbies" style="text;strokeColor=none;fillColor=none;html=1;align=center;verticalAlign=middle;whiteSpace=wrap;rounded=0;sketch=0;hachureGap=4;fontColor=#46495D;" vertex="1" parent="1">
          <mxGeometry x="120" y="204" width="89" height="29" as="geometry" />
        </mxCell>
      </root>
    </mxGraphModel>
  </diagram>
</mxfile>
